<svg width="49" height="51" viewBox="0 0 49 51" fill="none" xmlns="http://www.w3.org/2000/svg">
<g clip-path="url(#clip0_193_92)">
<path d="M24.4791 51C11.2949 51.0216 0.221909 40.1132 0.000237539 26.1716C-0.23199 11.6125 10.6299 0.173283 24.1836 -3.92406e-05C37.3678 -0.162529 48.6836 10.7459 48.9897 24.7633C49.3275 40.0373 37.5366 51.0975 24.4686 51H24.4791Z" fill="#6CBD63" fill-opacity="0.8"/>
<path d="M11.4868 38.4125C11.5098 38.3444 11.5098 38.3103 11.5327 38.2649C12.0951 36.6194 12.6575 34.9739 13.22 33.317C13.22 33.3056 13.22 33.2829 13.2314 33.2716C13.2659 33.2035 13.2544 33.1468 13.2085 33.0787C12.9904 32.7609 12.7723 32.4545 12.5772 32.1254C11.8082 30.8657 11.2572 29.5039 10.9244 28.074C10.7866 27.4725 10.6833 26.871 10.626 26.2582C10.5571 25.5773 10.5341 24.885 10.58 24.2041C10.8096 20.4818 12.2788 17.3042 14.9991 14.7168C16.6289 13.162 18.5457 12.0726 20.7266 11.4257C21.4037 11.2214 22.0924 11.0739 22.7926 10.9718C23.2402 10.9037 23.6879 10.8583 24.147 10.8469C24.5143 10.8469 24.893 10.8242 25.2603 10.8356C28.7841 10.9718 31.8487 12.2087 34.4542 14.5579C36.4858 16.3963 37.8631 18.6547 38.5748 21.2876C38.7469 21.9004 38.8617 22.5132 38.9421 23.1487C39.0339 23.8977 39.0798 24.6467 39.0454 25.3957C38.8732 30.1735 36.3021 34.3951 32.3882 36.835C31.0452 37.6748 29.599 38.2763 28.0495 38.6281C27.4756 38.7643 26.8902 38.8551 26.2934 38.9118C25.8457 38.9572 25.3866 38.9686 24.939 38.9913C24.388 39.0139 23.8371 38.9686 23.2747 38.9118C21.794 38.7529 20.3822 38.3784 19.0278 37.777C18.3621 37.4819 17.7193 37.1414 17.0995 36.7442C17.0192 36.6875 16.9503 36.6762 16.8585 36.7102C15.1368 37.2549 13.4036 37.7997 11.6819 38.3444C11.636 38.3557 11.5901 38.3671 11.5098 38.3898L11.4868 38.4125ZM16.2501 20.845C16.2501 21.3443 16.3305 21.8209 16.4568 22.2976C16.6748 23.1033 17.0192 23.8637 17.4553 24.5786C17.7652 25.0893 18.0981 25.6 18.4424 26.0993C19.4295 27.5519 20.5773 28.8797 21.9317 30.0146C22.7696 30.7295 23.6764 31.3424 24.675 31.819C25.444 32.1821 26.236 32.4999 27.028 32.795C27.6133 33.0106 28.2102 33.2149 28.83 33.3283C29.071 33.3737 29.3235 33.4078 29.5646 33.3624C29.7023 33.3397 29.8515 33.317 29.9893 33.2943C30.15 33.2716 30.3106 33.2603 30.4599 33.2376C30.8157 33.1695 31.1485 33.0333 31.4699 32.8744C31.9635 32.6361 32.4226 32.341 32.8128 31.9552C33.0309 31.7282 33.2146 31.4785 33.3064 31.1835C33.3638 31.0132 33.4212 30.843 33.4671 30.6728C33.5704 30.2869 33.6393 29.8897 33.6163 29.4812C33.6163 29.345 33.5589 29.2429 33.4556 29.1634C33.3753 29.1067 33.2834 29.0499 33.1916 28.9932C32.8932 28.8343 32.5948 28.6641 32.2963 28.5052C31.5732 28.1307 30.8501 27.7562 30.127 27.3817C29.9663 27.3023 29.7827 27.2342 29.6105 27.1774C29.5187 27.1434 29.4268 27.1321 29.3235 27.1547C29.1514 27.1888 29.0366 27.2909 28.9333 27.4271C28.4856 28.0059 27.9921 28.5279 27.4985 29.0613C27.4412 29.1294 27.3723 29.1861 27.3034 29.2315C27.1772 29.311 27.0394 29.3564 26.8902 29.311C26.7869 29.2769 26.6721 29.2429 26.5688 29.1975C26.4196 29.1294 26.2704 29.05 26.1212 28.9819C25.3981 28.6414 24.7094 28.2329 24.0666 27.7449C22.6548 26.6781 21.5874 25.339 20.738 23.7956C20.7151 23.7502 20.6921 23.6934 20.6692 23.6481C20.6003 23.4665 20.6347 23.2962 20.7495 23.1374C20.7839 23.092 20.8184 23.0579 20.8528 23.0125C21.0824 22.7742 21.3004 22.5359 21.53 22.2976C21.7596 22.0706 21.9203 21.7982 22.0809 21.5145C22.2072 21.2876 22.2187 21.0606 22.1269 20.8223C22.0924 20.7315 22.058 20.652 22.0236 20.5613C21.7251 19.7555 21.4152 18.9498 21.1168 18.1327C21.025 17.8717 20.9217 17.622 20.8184 17.361C20.761 17.2021 20.6806 17.0546 20.5544 16.9297C20.4396 16.8049 20.2904 16.7368 20.1182 16.7255C19.8313 16.7141 19.5558 16.7028 19.2689 16.6687C18.7868 16.612 18.3621 16.7368 18.0063 17.0546C17.6505 17.3723 17.3176 17.7128 17.0536 18.11C16.4912 18.9384 16.2501 19.8463 16.2387 20.8336L16.2501 20.845Z" fill="#1B6444"/>
</g>
<defs>
<clipPath id="clip0_193_92">
<rect width="49" height="51" fill="white"/>
</clipPath>
</defs>
</svg>
