<svg width="50" height="51" viewBox="0 0 50 51" fill="none" xmlns="http://www.w3.org/2000/svg">
<path d="M49.9798 25.5977C49.8497 39.7577 38.6399 51.1402 24.9583 50.9986C10.9622 50.8571 -0.160858 39.3656 0.00176056 25.2273C0.164379 11.0891 11.4284 -0.0973918 25.3919 0.000639401C38.9543 0.0986706 50.1099 11.7099 49.9798 25.5977Z" fill="#6CBD63" fill-opacity="0.8"/>
<path d="M26.9205 21.9706C26.9205 22.9291 26.9205 23.8985 26.9205 24.8571C26.9205 25.4562 27.1048 26.1097 27.6577 26.2513C28.1348 26.3711 28.6009 25.881 28.9153 25.4344C30.1946 23.6045 31.4305 21.7419 32.2327 19.6396C32.6555 18.5504 33.2952 18.0711 34.5094 18.1692C35.9946 18.289 37.4799 18.2018 38.976 18.2236C40.407 18.2563 40.6564 18.6484 40.1143 20.0318C39.4422 21.7745 38.2496 23.1905 37.1438 24.6501C34.3468 28.3535 34.7154 27.9723 37.5124 30.9786C38.5207 32.0569 39.6698 33.0263 40.1685 34.5186C40.5046 35.5207 40.1902 36.0871 39.2036 36.2178C37.2414 36.4901 35.2683 36.4465 33.3277 36.0871C32.3845 35.9128 31.8099 35.0959 31.1595 34.4532C30.4439 33.7452 29.7718 32.9828 29.0237 32.3183C28.1673 31.5559 27.571 31.7519 27.2133 32.8738C27.0832 33.2878 26.9856 33.7234 26.9314 34.1483C26.6604 36.2723 26.6712 36.294 24.5246 36.3158C20.5134 36.3594 17.3694 34.5839 14.9085 31.5123C12.2307 28.1901 10.095 24.5194 8.32784 20.6417C7.40634 18.6158 7.5798 18.3217 9.72636 18.1147C10.8972 18.0058 12.0897 18.0602 13.2714 18.0385C14.1062 18.0276 14.5073 18.5722 14.8217 19.2366C15.6457 20.9249 16.4696 22.6132 17.3044 24.3016C17.4345 24.5739 17.5862 24.8571 17.7814 25.0858C18.2909 25.7067 18.6812 26.6979 19.6569 26.4365C20.6109 26.175 20.4266 25.1947 20.4375 24.4105C20.4375 23.3104 20.4375 22.2211 20.4375 21.121C20.4375 20.0971 20.199 19.2911 19.1365 18.79C18.2692 18.3761 19.0715 17.9295 19.3859 17.7553C20.6001 17.1017 21.9336 16.873 23.3104 16.9165C26.1942 17.0146 26.8447 17.6681 26.8447 20.5001C26.8447 20.9794 26.8447 21.4695 26.8447 21.9488C26.8772 21.9488 26.8989 21.9488 26.9314 21.9488L26.9205 21.9706Z" fill="#1B6444"/>
</svg>
