<svg width="123" height="48" viewBox="0 0 123 48" fill="none" xmlns="http://www.w3.org/2000/svg">
<path d="M109.67 14.2709H116.23C116.649 14.2709 116.919 14.1925 117.041 14.0357C117.163 13.8788 117.224 13.6959 117.224 13.4868V12.7811C117.224 12.572 117.163 12.3977 117.041 12.2583C116.919 12.1015 116.649 12.0231 116.23 12.0231H111.787C111.456 12.0231 111.212 11.9534 111.055 11.814C110.916 11.6572 110.846 11.4132 110.846 11.0822V8.28548C110.846 7.95441 110.916 7.71918 111.055 7.57978C111.212 7.42296 111.456 7.34454 111.787 7.34454H114.532C114.95 7.34454 115.22 7.26613 115.342 7.10931C115.464 6.95249 115.525 6.76953 115.525 6.56043V6.16837C115.525 5.95927 115.464 5.77631 115.342 5.61949C115.22 5.46267 114.95 5.38426 114.532 5.38426H109.67C109.339 5.38426 109.095 5.31456 108.938 5.17516C108.799 5.01834 108.729 4.77439 108.729 4.44332V1.333C108.729 1.00192 108.799 0.76669 108.938 0.627292C109.095 0.470469 109.339 0.392057 109.67 0.392057H116.962C118.409 0.392057 119.48 0.73184 120.177 1.41141C120.892 2.07355 121.249 2.97964 121.249 4.12967V5.64563C121.249 6.30777 121.135 6.88279 120.909 7.37068C120.682 7.85858 120.282 8.2245 119.707 8.46844C120.944 8.60784 121.798 8.99118 122.268 9.61848C122.756 10.2283 123 11.1083 123 12.2583V14.872C123 16.2138 122.573 17.2767 121.719 18.0608C120.865 18.8275 119.602 19.2108 117.929 19.2108H109.67C109.339 19.2108 109.095 19.1411 108.938 19.0017C108.799 18.8449 108.729 18.601 108.729 18.2699V15.2118C108.729 14.8808 108.799 14.6455 108.938 14.5061C109.095 14.3493 109.339 14.2709 109.67 14.2709Z" fill="white"/>
<path d="M105.925 14.2709C105.925 15.0724 105.803 15.8043 105.559 16.4664C105.332 17.1111 104.914 17.6687 104.304 18.1392C103.712 18.5922 102.884 18.9494 101.821 19.2108C100.776 19.4722 99.4425 19.6029 97.822 19.6029C96.2015 19.6029 94.8598 19.4722 93.7969 19.2108C92.734 18.9494 91.8976 18.5922 91.2877 18.1392C90.6953 17.6687 90.2771 17.1111 90.0332 16.4664C89.8066 15.8043 89.6934 15.0724 89.6934 14.2709V5.35812C89.6934 4.55658 89.8066 3.83345 90.0332 3.18873C90.2771 2.52659 90.6953 1.96029 91.2877 1.48982C91.8976 1.01935 92.734 0.653429 93.7969 0.392057C94.8598 0.130686 96.2015 0 97.822 0C99.4425 0 100.776 0.130686 101.821 0.392057C102.884 0.653429 103.712 1.01935 104.304 1.48982C104.914 1.96029 105.332 2.52659 105.559 3.18873C105.803 3.83345 105.925 4.55658 105.925 5.35812V14.2709ZM95.6265 13.33C95.6265 13.6785 95.7572 13.9747 96.0186 14.2186C96.2799 14.4451 96.8811 14.5584 97.822 14.5584C98.763 14.5584 99.3641 14.4451 99.6255 14.2186C99.8869 13.9747 100.018 13.6785 100.018 13.33V6.29906C100.018 5.96799 99.8869 5.68919 99.6255 5.46267C99.3641 5.21872 98.763 5.09675 97.822 5.09675C96.8811 5.09675 96.2799 5.21872 96.0186 5.46267C95.7572 5.68919 95.6265 5.96799 95.6265 6.29906V13.33Z" fill="white"/>
<path d="M75.4668 19.2108H71.4155C71.0845 19.2108 70.8405 19.1411 70.6837 19.0017C70.5443 18.8449 70.4746 18.601 70.4746 18.2699V10.9253C70.4746 10.0715 70.675 9.34839 71.0757 8.75595C71.4939 8.14608 72.069 7.74531 72.8008 7.55364L71.1019 1.30686C71.0322 1.01064 71.0496 0.784115 71.1542 0.627292C71.2587 0.470469 71.4678 0.392057 71.7815 0.392057H75.7282C76.0592 0.392057 76.3119 0.461756 76.4861 0.601155C76.6778 0.740552 76.8085 0.975787 76.8782 1.30686L78.1328 7.34454H78.9953L80.2499 1.30686C80.3196 0.975787 80.4416 0.740552 80.6158 0.601155C80.7901 0.461756 81.0427 0.392057 81.3738 0.392057H85.3466C85.6777 0.392057 85.8955 0.470469 86.0001 0.627292C86.1046 0.784115 86.122 1.01064 86.0523 1.30686L84.3534 7.55364C85.0504 7.76274 85.5993 8.16351 86.0001 8.75595C86.4008 9.34839 86.6012 10.0715 86.6012 10.9253V18.2699C86.6012 18.601 86.5228 18.8449 86.366 19.0017C86.2266 19.1411 85.9914 19.2108 85.6603 19.2108H81.6352C81.3041 19.2108 81.0601 19.1411 80.9033 19.0017C80.7639 18.8449 80.6942 18.601 80.6942 18.2699V13.1993C80.6942 12.9205 80.6245 12.7027 80.4851 12.5458C80.3457 12.3716 80.1366 12.2845 79.8578 12.2845H77.2441C76.9653 12.2845 76.7562 12.3716 76.6168 12.5458C76.4774 12.7027 76.4077 12.9205 76.4077 13.1993V18.2699C76.4077 18.601 76.3293 18.8449 76.1725 19.0017C76.0331 19.1411 75.7979 19.2108 75.4668 19.2108Z" fill="white"/>
<path d="M62.3552 13.0424V11.6572C62.3552 11.3261 62.2768 11.0299 62.12 10.7685C61.9632 10.5071 61.6321 10.3765 61.1268 10.3765H58.7744V14.3232H61.1268C61.6321 14.3232 61.9632 14.1925 62.12 13.9311C62.2768 13.6697 62.3552 13.3735 62.3552 13.0424ZM68.0008 10.7685V14.1141C68.0008 15.63 67.5652 16.8585 66.694 17.7994C65.8227 18.7404 64.2022 19.2108 61.8325 19.2108H53.8345C53.5034 19.2108 53.2682 19.1324 53.1288 18.9756C52.972 18.8362 52.8936 18.601 52.8936 18.2699V1.333C52.8936 1.00192 52.972 0.76669 53.1288 0.627292C53.2682 0.470469 53.5034 0.392057 53.8345 0.392057H57.8858C58.2168 0.392057 58.4608 0.470469 58.6176 0.627292C58.757 0.76669 58.8267 1.00192 58.8267 1.333V5.67177H61.8325C64.2022 5.67177 65.8227 6.14223 66.694 7.08317C67.5652 8.02411 68.0008 9.25256 68.0008 10.7685Z" fill="white"/>
<path d="M38.14 0.392057H44.9357C45.2668 0.392057 45.5456 0.453043 45.7721 0.575016C45.9812 0.69699 46.1467 0.923513 46.2687 1.25458L48.8302 7.65819C48.987 8.04154 49.1177 8.38132 49.2222 8.67754C49.3268 8.95634 49.4139 9.22642 49.4836 9.48779C49.5533 9.74916 49.5968 10.028 49.6143 10.3242C49.6491 10.603 49.6665 10.9515 49.6665 11.3697V18.2699C49.6665 18.601 49.5881 18.8362 49.4313 18.9756C49.2919 19.1324 49.0567 19.2108 48.7256 19.2108H44.5698C44.2387 19.2108 43.9861 19.1324 43.8118 18.9756C43.6376 18.8362 43.5504 18.601 43.5504 18.2699V11.056C43.5504 10.8818 43.533 10.7075 43.4982 10.5333C43.4633 10.359 43.411 10.1761 43.3413 9.9844L42.1129 6.32519C42.0606 6.15095 41.9996 6.02897 41.9299 5.95927C41.8602 5.907 41.7557 5.88086 41.6163 5.88086H41.3288C41.1894 5.88086 41.0848 5.907 41.0151 5.95927C40.9454 6.02897 40.8845 6.15095 40.8322 6.32519L39.6037 10.0105C39.534 10.2022 39.4818 10.3852 39.4469 10.5594C39.4121 10.7337 39.3946 10.9079 39.3946 11.0822V18.2699C39.3946 18.601 39.3162 18.8362 39.1594 18.9756C39.02 19.1324 38.7848 19.2108 38.4537 19.2108H34.3502C34.0191 19.2108 33.7839 19.1324 33.6445 18.9756C33.4876 18.8362 33.4092 18.601 33.4092 18.2699V11.3697C33.4092 10.9515 33.4179 10.603 33.4354 10.3242C33.4702 10.028 33.5225 9.74916 33.5922 9.48779C33.6619 9.22642 33.749 8.95634 33.8536 8.67754C33.9581 8.38132 34.0888 8.04154 34.2456 7.65819L36.8071 1.25458C36.929 0.923513 37.0946 0.69699 37.3037 0.575016C37.5302 0.453043 37.809 0.392057 38.14 0.392057Z" fill="white"/>
<path d="M29.7683 19.2108H17.6406C17.3096 19.2108 17.0656 19.1411 16.9088 19.0017C16.7694 18.8449 16.6997 18.601 16.6997 18.2699V1.333C16.6997 1.00192 16.7694 0.76669 16.9088 0.627292C17.0656 0.470469 17.3096 0.392057 17.6406 0.392057H29.7683C30.0994 0.392057 30.3346 0.470469 30.474 0.627292C30.6308 0.76669 30.7092 1.00192 30.7092 1.333V4.39104C30.7092 4.72211 30.6308 4.96606 30.474 5.12288C30.3346 5.26228 30.0994 5.33198 29.7683 5.33198H22.5544V7.34454H27.6512C27.9822 7.34454 28.2175 7.42296 28.3569 7.57978C28.5137 7.71918 28.5921 7.95441 28.5921 8.28548V11.0822C28.5921 11.4132 28.5137 11.6572 28.3569 11.814C28.2175 11.9534 27.9822 12.0231 27.6512 12.0231H22.5544V14.2709H29.7683C30.0994 14.2709 30.3346 14.3493 30.474 14.5061C30.6308 14.6455 30.7092 14.8808 30.7092 15.2118V18.2699C30.7092 18.601 30.6308 18.8449 30.474 19.0017C30.3346 19.1411 30.0994 19.2108 29.7683 19.2108Z" fill="white"/>
<path d="M12.8072 19.2108H6.42974C4.25165 19.2108 2.63114 18.7752 1.56823 17.904C0.522744 17.0327 0 15.691 0 13.8788V5.75018C0 3.938 0.522744 2.59629 1.56823 1.72505C2.63114 0.836389 4.25165 0.392057 6.42974 0.392057H12.8072C13.1383 0.392057 13.3735 0.470469 13.5129 0.627292C13.6697 0.76669 13.7482 1.00192 13.7482 1.333V4.49559C13.7482 4.82666 13.6697 5.07061 13.5129 5.22743C13.3735 5.36683 13.1383 5.43653 12.8072 5.43653H7.55364C7.01347 5.43653 6.6127 5.54979 6.35133 5.77631C6.08996 5.98541 5.95927 6.30777 5.95927 6.74339V12.964C5.95927 13.3997 6.08996 13.722 6.35133 13.9311C6.6127 14.1228 7.01347 14.2186 7.55364 14.2186H12.8072C13.1383 14.2186 13.3735 14.297 13.5129 14.4539C13.6697 14.5933 13.7482 14.8285 13.7482 15.1596V18.2699C13.7482 18.601 13.6697 18.8449 13.5129 19.0017C13.3735 19.1411 13.1383 19.2108 12.8072 19.2108Z" fill="white"/>
<path d="M77.7768 41.0856V34.0547C77.7768 33.7237 77.6461 33.4449 77.3847 33.2183C77.1233 32.9744 76.5222 32.8524 75.5812 32.8524C74.6403 32.8524 74.0391 32.9744 73.7778 33.2183C73.5164 33.4449 73.3857 33.7237 73.3857 34.0547V41.0856C73.3857 41.4341 73.5164 41.7303 73.7778 41.9743C74.0391 42.2008 74.6403 42.3141 75.5812 42.3141C76.5222 42.3141 77.1233 42.2008 77.3847 41.9743C77.6461 41.7303 77.7768 41.4341 77.7768 41.0856ZM82.0632 29.2455C82.6731 29.716 83.0913 30.2823 83.3178 30.9444C83.5618 31.5891 83.6838 32.3122 83.6838 33.1138V42.0266C83.6838 42.8281 83.5618 43.5599 83.3178 44.2221C83.0913 44.8668 82.6731 45.4244 82.0632 45.8949C81.4708 46.3479 80.6431 46.7051 79.5802 46.9665C78.5347 47.2279 77.2017 47.3585 75.5812 47.3585C73.9433 47.3585 72.6016 47.2279 71.5561 46.9665C70.4932 46.7051 69.6568 46.3479 69.0469 45.8949C68.4545 45.4244 68.0363 44.8668 67.7924 44.2221C67.5658 43.5599 67.4526 42.8281 67.4526 42.0266V40.2492H64.7866V46.0255C64.7866 46.3566 64.7082 46.6006 64.5513 46.7574C64.4119 46.8968 64.1767 46.9665 63.8456 46.9665H60.3433C60.0122 46.9665 59.777 46.8968 59.6376 46.7574C59.4807 46.6006 59.4023 46.3566 59.4023 46.0255V39.0208V38.864V38.7333V29.0887C59.4023 28.7576 59.4807 28.5136 59.6376 28.3568C59.777 28.2174 60.0122 28.1477 60.3433 28.1477H63.8456C64.1767 28.1477 64.4119 28.2174 64.5513 28.3568C64.7082 28.5136 64.7866 28.7576 64.7866 29.0887V34.865H67.4526V33.1138C67.4526 32.3122 67.5658 31.5891 67.7924 30.9444C68.0363 30.2823 68.4545 29.716 69.0469 29.2455C69.6568 28.775 70.4932 28.4091 71.5561 28.1477C72.619 27.8863 73.9607 27.7557 75.5812 27.7557C77.2017 27.7557 78.5347 27.8863 79.5802 28.1477C80.6431 28.4091 81.4708 28.775 82.0632 29.2455Z" fill="white"/>
<path d="M44.5619 47.3585H40.5107C40.1796 47.3585 39.9356 47.2888 39.7788 47.1494C39.6394 46.9926 39.5697 46.7487 39.5697 46.4176V29.4807C39.5697 29.1496 39.6394 28.9144 39.7788 28.775C39.9356 28.6182 40.1796 28.5398 40.5107 28.5398H44.5619C44.893 28.5398 45.1282 28.6182 45.2676 28.775C45.4245 28.9144 45.5029 29.1496 45.5029 29.4807V35.1525H49.8678V29.4807C49.8678 29.1496 49.9375 28.9144 50.0769 28.775C50.2337 28.6182 50.4776 28.5398 50.8087 28.5398H54.86C55.191 28.5398 55.4263 28.6182 55.5657 28.775C55.7225 28.9144 55.8009 29.1496 55.8009 29.4807V46.4176C55.8009 46.7487 55.7225 46.9926 55.5657 47.1494C55.4263 47.2888 55.191 47.3585 54.86 47.3585H50.8087C50.4776 47.3585 50.2337 47.2888 50.0769 47.1494C49.9375 46.9926 49.8678 46.7487 49.8678 46.4176V40.6151H45.5029V46.4176C45.5029 46.7487 45.4245 46.9926 45.2676 47.1494C45.1282 47.2888 44.893 47.3585 44.5619 47.3585Z" fill="white"/>
<path d="M35.5368 47.3585H23.4092C23.0781 47.3585 22.8342 47.2888 22.6774 47.1494C22.538 46.9926 22.4683 46.7487 22.4683 46.4176V29.4807C22.4683 29.1496 22.538 28.9144 22.6774 28.775C22.8342 28.6182 23.0781 28.5398 23.4092 28.5398H35.5368C35.8679 28.5398 36.1031 28.6182 36.2425 28.775C36.3994 28.9144 36.4778 29.1496 36.4778 29.4807V32.5388C36.4778 32.8698 36.3994 33.1138 36.2425 33.2706C36.1031 33.41 35.8679 33.4797 35.5368 33.4797H28.323V35.4923H33.4197C33.7508 35.4923 33.986 35.5707 34.1254 35.7275C34.2823 35.8669 34.3607 36.1021 34.3607 36.4332V39.2299C34.3607 39.561 34.2823 39.8049 34.1254 39.9617C33.986 40.1011 33.7508 40.1708 33.4197 40.1708H28.323V42.4186H35.5368C35.8679 42.4186 36.1031 42.497 36.2425 42.6538C36.3994 42.7932 36.4778 43.0285 36.4778 43.3596V46.4176C36.4778 46.7487 36.3994 46.9926 36.2425 47.1494C36.1031 47.2888 35.8679 47.3585 35.5368 47.3585Z" fill="white"/>
<path d="M5.12277 47.3585H1.22833C0.897264 47.3585 0.653317 47.2888 0.496494 47.1494C0.357096 46.9926 0.287397 46.7487 0.287397 46.4176V29.4807C0.287397 29.1496 0.357096 28.9144 0.496494 28.775C0.653317 28.6182 0.897264 28.5398 1.22833 28.5398H5.43642C5.71522 28.5398 5.94174 28.6008 6.11599 28.7227C6.30766 28.8447 6.48191 29.0451 6.63873 29.3239L8.99108 33.5843C9.0782 33.7411 9.1479 33.8543 9.20017 33.924C9.26987 33.9937 9.35699 34.0286 9.46154 34.0286H9.69678C9.80133 34.0286 9.87974 33.9937 9.93201 33.924C10.0017 33.8543 10.0801 33.7411 10.1672 33.5843L12.4935 29.3239C12.6503 29.0451 12.8158 28.8447 12.9901 28.7227C13.1817 28.6008 13.417 28.5398 13.6958 28.5398H17.93C18.2611 28.5398 18.4963 28.6182 18.6357 28.775C18.7925 28.9144 18.8709 29.1496 18.8709 29.4807V46.4176C18.8709 46.7487 18.7925 46.9926 18.6357 47.1494C18.4963 47.2888 18.2611 47.3585 17.93 47.3585H13.9049C13.5738 47.3585 13.3298 47.2888 13.173 47.1494C13.0336 46.9926 12.9639 46.7487 12.9639 46.4176V37.2173L11.4218 40.0663C11.265 40.3625 11.0733 40.5803 10.8468 40.7197C10.6377 40.8417 10.3676 40.9027 10.0366 40.9027H8.99108C8.66 40.9027 8.38121 40.8417 8.15468 40.7197C7.94559 40.5803 7.76263 40.3625 7.6058 40.0663L6.06371 37.2173V46.4176C6.06371 46.7487 5.9853 46.9926 5.82848 47.1494C5.68908 47.2888 5.45384 47.3585 5.12277 47.3585Z" fill="white"/>
</svg>
