<svg width="50" height="51" viewBox="0 0 50 51" fill="none" xmlns="http://www.w3.org/2000/svg">
<g clip-path="url(#clip0_193_78)">
<path d="M24.9783 51C11.525 51.0216 0.226019 40.1132 -0.00017614 26.1716C-0.237143 11.6125 10.8464 0.173283 24.6767 -3.92406e-05C38.1299 -0.162529 49.6767 10.7459 49.9891 24.7633C50.3337 40.0373 38.3023 51.0975 24.9675 51H24.9783Z" fill="#6CBD63" fill-opacity="0.8"/>
<path d="M39.1209 37.2426C37.139 37.416 11.1588 37.351 10.0171 37.156C12.6022 34.502 15.1442 31.9022 17.6862 29.3023C17.8693 29.1182 18.0416 28.9232 18.2355 28.7499C19.0434 28.0457 19.6573 26.6483 20.5944 26.6917C21.4884 26.735 22.4255 27.7641 23.1795 28.5332C24.2459 29.6165 25.1076 29.5948 26.1631 28.5332C26.9171 27.7749 27.865 26.7242 28.7482 26.7025C29.6746 26.6808 30.2778 28.0782 31.0748 28.8149C33.8969 31.458 36.6974 34.112 39.5087 36.766C39.3794 36.9285 39.2394 37.091 39.1102 37.2535L39.1209 37.2426Z" fill="#1B6444"/>
<path d="M10.0816 14.7324H39.1316C39.1854 15.2632 38.7007 15.3498 38.4422 15.5557C34.1337 18.9463 29.8144 22.3261 25.4952 25.695C25.0536 26.0416 24.7412 26.41 24.0626 25.8792C19.5387 22.2827 14.9717 18.7405 10.4263 15.1657C10.3401 15.0899 10.2755 14.9815 10.0708 14.7216L10.0816 14.7324Z" fill="#1B6444"/>
<path d="M9.71533 33.267V17.9497C11.9342 19.6829 14.013 21.3078 16.0811 22.9327C17.625 24.1532 17.6968 25.4712 16.2965 26.8866C14.4654 28.7498 12.6343 30.6239 10.7925 32.4763C10.5016 32.7687 10.297 33.1912 9.71533 33.2779V33.267Z" fill="#1B6444"/>
<path d="M39.6054 17.9713V33.202C39.2715 33.3645 39.1422 33.0612 38.9914 32.8987C36.5248 30.3963 34.0582 27.8832 31.5916 25.3808C31.2469 25.0342 30.8592 24.785 31.5054 24.2976C34.1552 22.2719 36.7726 20.2028 39.6054 17.9821V17.9713Z" fill="#1B6444"/>
</g>
<defs>
<clipPath id="clip0_193_78">
<rect width="50" height="51" fill="white"/>
</clipPath>
</defs>
</svg>
