<svg width="56" height="57" viewBox="0 0 56 57" fill="none" xmlns="http://www.w3.org/2000/svg">
<path d="M47.2902 0H8.70976C3.89949 0 0 3.90809 0 8.72896V48.271C0 53.0919 3.89949 57 8.70976 57H47.2902C52.1005 57 56 53.0919 56 48.271V8.72896C56 3.90809 52.1005 0 47.2902 0Z" fill="#8CC586"/>
<path d="M28.861 38.8311C25.446 38.8311 22.031 38.8311 18.6159 38.8311C15.2403 38.8311 13.2701 36.9003 12.9942 33.5378C12.4557 26.826 11.8515 20.1272 11.313 13.4154C11.2605 12.7324 11.0634 12.3909 10.341 12.3252C9.63174 12.2595 8.9356 12.115 8.23946 11.9574C7.32003 11.7341 6.84718 11.1299 7.0442 10.1711C7.25435 9.21226 7.97677 8.89703 8.88306 9.02838C10.1046 9.21226 11.2999 9.48809 12.5214 9.67198C13.5853 9.84273 14.0844 10.4338 14.137 11.4846C14.2026 12.7192 14.4259 13.9408 14.3997 15.1754C14.3734 16.3444 14.7543 16.6859 15.9364 16.6728C24.5791 16.6203 33.2086 16.6465 41.8513 16.6465C45.3583 16.6465 47.0527 18.446 46.6192 21.9004C46.0938 26.0773 45.4896 30.2541 44.8198 34.4179C44.3863 37.163 42.3636 38.7786 39.5264 38.8049C35.9669 38.8311 32.4074 38.8049 28.8479 38.8049L28.861 38.8311Z" fill="#1B6444"/>
<path d="M8.75879 8.51074L8.95508 8.5332L8.95703 8.53418L9.88379 8.68848C10.1903 8.74371 10.4946 8.80206 10.7959 8.85938C11.0987 8.91698 11.3989 8.9734 11.6982 9.02734L12.5957 9.17773L12.6006 9.17871L12.8242 9.2207C13.3343 9.33552 13.7659 9.5564 14.084 9.91797C14.446 10.3295 14.6067 10.8618 14.6367 11.458L14.667 11.9092C14.7031 12.3596 14.7543 12.8116 14.8008 13.2812C14.8466 13.7443 14.8868 14.2192 14.8984 14.7012L14.8994 15.1865C14.8868 15.7487 14.9837 15.9331 15.0605 16.0068C15.1454 16.0882 15.3521 16.1793 15.9307 16.1729H15.9336L22.415 16.1465C28.8949 16.1317 35.3711 16.1465 41.8516 16.1465C43.6797 16.1465 45.1429 16.6156 46.082 17.6406C46.9656 18.6053 47.3001 19.969 47.1514 21.627L47.1152 21.9629C46.5891 26.1458 45.9842 30.3282 45.3135 34.4971C45.0796 35.9767 44.4106 37.1815 43.3916 38.0176C42.3747 38.8519 41.0439 39.2906 39.5312 39.3047C36.2398 39.329 32.9434 39.3089 29.6572 39.3057L29.6699 39.3311H18.6162C16.8318 39.3311 15.3605 38.8187 14.2979 37.8076C13.2376 36.7987 12.6412 35.3476 12.4961 33.5791C12.227 30.2248 11.941 26.8722 11.6553 23.5195C11.3696 20.1671 11.0838 16.8124 10.8145 13.4551C10.7898 13.1342 10.7347 13.0093 10.6904 12.9551C10.67 12.9301 10.6228 12.8835 10.4775 12.8506L10.2959 12.8232C9.55213 12.7544 8.82809 12.6036 8.12891 12.4453L8.12109 12.4434C7.58509 12.3131 7.11298 12.0552 6.81348 11.626C6.5085 11.1889 6.43558 10.65 6.55469 10.0703L6.55566 10.0645L6.6123 9.84863C6.76427 9.36115 7.04965 8.98773 7.45508 8.75684C7.84734 8.53355 8.30237 8.47198 8.75879 8.51074ZM8.81152 9.52344C8.42635 9.46762 8.14208 9.51593 7.9502 9.625C7.77447 9.72503 7.61382 9.91 7.5332 10.2705L7.53418 10.2715C7.45632 10.6504 7.52092 10.8931 7.63281 11.0537C7.74976 11.2213 7.97234 11.3765 8.35254 11.4697C9.0446 11.6264 9.7129 11.7647 10.3867 11.8271L10.5449 11.8467C10.9101 11.9024 11.2338 12.0381 11.4658 12.3223C11.7133 12.6254 11.7836 13.0134 11.8115 13.375L12.2256 18.4053C12.3663 20.0816 12.5085 21.7581 12.6514 23.4346C12.937 26.7866 13.2228 30.1401 13.4922 33.4971L13.5215 33.791C13.6901 35.2385 14.2021 36.3358 14.9873 37.083C15.8227 37.8779 17.025 38.3311 18.6162 38.3311H28.0518L28.0391 38.3047H28.8477C32.412 38.3047 35.9645 38.3309 39.5215 38.3047L39.7676 38.2979C40.9825 38.2433 41.9965 37.8688 42.7578 37.2441C43.5673 36.5798 44.1265 35.6046 44.3262 34.3398L44.8154 31.2178C45.292 28.0946 45.7296 24.9661 46.123 21.8379L46.1553 21.5361C46.2886 20.0527 45.9755 19.0039 45.3447 18.3154C44.6683 17.5772 43.5301 17.1465 41.8516 17.1465C33.2069 17.1465 24.5801 17.1203 15.9395 17.1729L15.9385 17.1719C15.3364 17.1783 14.7629 17.1059 14.3691 16.7285C13.9666 16.3425 13.8858 15.7708 13.8994 15.1641C13.9118 14.5784 13.866 13.9889 13.8057 13.3789C13.7461 12.7773 13.6713 12.143 13.6377 11.5107C13.615 11.0568 13.4993 10.7671 13.333 10.5781C13.1679 10.3906 12.8981 10.2392 12.4424 10.166C11.8221 10.0725 11.2095 9.95614 10.6084 9.8418C10.0037 9.72677 9.41014 9.61362 8.81152 9.52344Z" fill="#1B6444"/>
<path d="M17.7228 41.9966C19.4171 41.9966 20.7044 43.2444 20.7438 44.9125C20.77 46.6332 19.404 48.0386 17.7228 47.9992C16.1203 47.9729 14.7543 46.5806 14.7543 44.9782C14.7543 43.3495 16.1072 41.9966 17.7359 41.9966H17.7228Z" fill="#1B6444"/>
<path d="M17.7358 41.4966C19.6294 41.5028 21.1028 42.8709 21.2348 44.7202L21.2436 44.9009V44.9048L21.2416 45.0904C21.1745 46.9943 19.631 48.5417 17.7143 48.4986L17.7113 48.4995C15.8366 48.467 14.2543 46.8516 14.2543 44.9781C14.2544 43.0776 15.824 41.5047 17.7231 41.4976L17.7358 41.4966ZM15.2543 44.9781C15.2543 46.3083 16.4021 47.4777 17.7309 47.4995H17.7348L17.9906 47.4917C19.2546 47.3859 20.2622 46.2841 20.2436 44.9243L20.226 44.6675C20.0773 43.4089 19.0643 42.4994 17.7289 42.4966C16.3795 42.5005 15.2544 43.6279 15.2543 44.9781Z" fill="#1B6444"/>
<path d="M37.1622 44.9388C37.1753 43.2575 38.4494 42.0097 40.1438 41.9966C41.7856 41.9966 43.1385 43.3101 43.1648 44.9388C43.191 46.5675 41.7068 48.0255 40.065 47.9992C38.4625 47.9729 37.1359 46.5806 37.1622 44.9388Z" fill="#1B6444"/>
<path d="M40.1442 41.4966L40.3219 41.5015C42.1507 41.593 43.6349 43.0839 43.6647 44.9312C43.6954 46.8489 41.9743 48.53 40.0573 48.4995C38.1702 48.4684 36.6315 46.8397 36.6618 44.9312C36.679 42.9715 38.1813 41.5118 40.1403 41.4966H40.1442ZM40.1462 42.4966C38.7184 42.5084 37.6727 43.5425 37.6618 44.9429V44.9468C37.6398 46.3215 38.7555 47.4778 40.0729 47.4995L40.3278 47.4888C41.5905 47.3661 42.685 46.2023 42.6647 44.9468C42.6429 43.5971 41.5192 42.4979 40.1462 42.4966Z" fill="#1B6444"/>
<path d="M28.953 19.6281C33.2218 19.6281 37.5037 19.6281 41.7725 19.6281C43.6245 19.6281 43.9397 20.0484 43.6639 21.861C43.1122 25.565 42.5606 29.269 42.0483 32.973C41.72 35.3373 41.2471 35.797 38.8697 35.797C32.171 35.797 25.4854 35.797 18.7867 35.797C16.7114 35.797 16.1072 35.2453 15.9233 33.1438C15.5818 29.0326 15.2928 24.9214 14.8857 20.8102C14.7937 19.812 15.0564 19.6019 15.9758 19.615C20.2972 19.6544 24.6185 19.6281 28.9398 19.6281H28.953Z" fill="#8CC586"/>
<path d="M33.7603 26.9573C32.8671 26.9573 31.9608 26.9573 31.0677 26.9573C30.1351 26.9442 29.6623 26.34 29.636 25.5125C29.6097 24.6456 30.1614 24.0808 31.0414 24.0545C32.9328 24.0151 34.8242 24.002 36.7156 24.0545C37.5825 24.0808 38.1079 24.6587 38.0685 25.5519C38.0291 26.4451 37.4906 26.9179 36.5974 26.9442C35.6517 26.9704 34.706 26.9442 33.7603 26.9442V26.9573Z" fill="#1B6444"/>
<path d="M32.4534 23.5306C33.8768 23.5127 35.3028 23.5154 36.7298 23.555L36.932 23.5697C37.3938 23.623 37.8037 23.8124 38.1029 24.1429C38.4433 24.5192 38.5919 25.0245 38.5677 25.5736C38.5437 26.1184 38.3628 26.597 37.9935 26.9398C37.6741 27.2362 37.2605 27.3883 36.8079 27.432L36.6116 27.4437C35.8281 27.4655 35.0324 27.4523 34.2601 27.4466V27.4574H31.0609C30.4824 27.4492 29.9922 27.2528 29.6458 26.8802C29.3058 26.5143 29.152 26.0302 29.1361 25.5287C29.1195 24.9831 29.2867 24.4856 29.64 24.1205C29.9917 23.7571 30.4825 23.5713 31.0267 23.555H31.0306L32.4534 23.5306ZM36.7005 24.5531C34.8218 24.5009 32.9407 24.5138 31.055 24.5531L31.056 24.5541C30.7205 24.5641 30.4952 24.6737 30.3577 24.8158C30.2219 24.9562 30.1265 25.1757 30.1361 25.4964L30.1439 25.6146C30.1711 25.8789 30.2594 26.0716 30.3782 26.1996C30.508 26.3392 30.7206 26.4524 31.0745 26.4574H33.2601V26.4437H33.7601C34.7251 26.4437 35.6451 26.4707 36.5823 26.4447L36.7132 26.4359C37.003 26.4079 37.1926 26.318 37.3128 26.2064C37.4459 26.0829 37.5533 25.8779 37.5687 25.5296C37.5838 25.1862 37.4904 24.9562 37.3616 24.8138C37.234 24.6728 37.0237 24.5629 36.7005 24.5531Z" fill="#1B6444"/>
</svg>
